<svg width="10" height="10" viewBox="0 0 10 10" fill="none" xmlns="http://www.w3.org/2000/svg">
<path d="M5 0C4.01109 0 3.0444 0.293245 2.22215 0.842652C1.3999 1.39206 0.759043 2.17295 0.380605 3.08658C0.00216643 4.00021 -0.0968502 5.00555 0.0960758 5.97545C0.289002 6.94536 0.765206 7.83627 1.46447 8.53553C2.16373 9.23479 3.05464 9.711 4.02455 9.90392C4.99445 10.0969 5.99979 9.99783 6.91342 9.6194C7.82705 9.24096 8.60794 8.60009 9.15735 7.77785C9.70676 6.9556 10 5.9889 10 5C9.99853 3.67437 9.47127 2.40345 8.53391 1.46609C7.59655 0.528727 6.32563 0.00147047 5 0ZM6.15222 7.66222H3.93C3.81949 7.66222 3.71351 7.61832 3.63537 7.54018C3.55723 7.46204 3.51333 7.35606 3.51333 7.24555C3.51333 7.13505 3.55723 7.02907 3.63537 6.95093C3.71351 6.87279 3.81949 6.82889 3.93 6.82889H4.48556C4.52239 6.82889 4.55772 6.81425 4.58377 6.78821C4.60981 6.76216 4.62445 6.72683 4.62445 6.69V4.46778C4.62445 4.43094 4.60981 4.39561 4.58377 4.36957C4.55772 4.34352 4.52239 4.32889 4.48556 4.32889H3.93C3.81949 4.32889 3.71351 4.28499 3.63537 4.20685C3.55723 4.12871 3.51333 4.02273 3.51333 3.91222C3.51333 3.80171 3.55723 3.69573 3.63537 3.61759C3.71351 3.53945 3.81949 3.49555 3.93 3.49555H4.48556C4.74332 3.49585 4.99043 3.59837 5.1727 3.78064C5.35496 3.9629 5.45748 4.21002 5.45778 4.46778V6.69C5.45778 6.72683 5.47241 6.76216 5.49846 6.78821C5.5245 6.81425 5.55983 6.82889 5.59667 6.82889H6.15222C6.26273 6.82889 6.36871 6.87279 6.44685 6.95093C6.52499 7.02907 6.56889 7.13505 6.56889 7.24555C6.56889 7.35606 6.52499 7.46204 6.44685 7.54018C6.36871 7.61832 6.26273 7.66222 6.15222 7.66222ZM5.04111 1.41222C5.17846 1.41222 5.31272 1.45295 5.42692 1.52926C5.54113 1.60556 5.63013 1.71402 5.68269 1.84091C5.73526 1.96781 5.74901 2.10744 5.72221 2.24215C5.69542 2.37685 5.62928 2.50059 5.53216 2.59771C5.43504 2.69483 5.3113 2.76097 5.17659 2.78777C5.04188 2.81456 4.90225 2.80081 4.77536 2.74825C4.64847 2.69569 4.54001 2.60668 4.4637 2.49248C4.3874 2.37828 4.34667 2.24401 4.34667 2.10667C4.34667 1.92249 4.41983 1.74585 4.55007 1.61562C4.6803 1.48539 4.85693 1.41222 5.04111 1.41222Z" fill="#9BA1B5"/>
</svg>
