<svg width="45" height="18" viewBox="0 0 45 18" fill="none" xmlns="http://www.w3.org/2000/svg">
<path d="M36.0008 12.375C37.8647 12.375 39.3758 10.864 39.3758 9C39.3758 7.13604 37.8647 5.625 36.0008 5.625C34.1368 5.625 32.6258 7.13604 32.6258 9C32.6258 10.864 34.1368 12.375 36.0008 12.375Z" fill="white"/>
<path d="M36.0008 1.125V3.375" stroke="white" stroke-width="1.5" stroke-linecap="round" stroke-linejoin="round"/>
<path d="M36.0008 14.625V16.875" stroke="white" stroke-width="1.5" stroke-linecap="round" stroke-linejoin="round"/>
<path d="M43.8758 9H41.6258" stroke="white" stroke-width="1.5" stroke-linecap="round" stroke-linejoin="round"/>
<path d="M30.3758 9H28.1258" stroke="white" stroke-width="1.5" stroke-linecap="round" stroke-linejoin="round"/>
<path d="M41.5687 3.432L39.978 5.02275" stroke="white" stroke-width="1.5" stroke-linecap="round" stroke-linejoin="round"/>
<path d="M32.0228 12.978L30.432 14.5687" stroke="white" stroke-width="1.5" stroke-linecap="round" stroke-linejoin="round"/>
<path d="M41.5687 14.5687L39.978 12.978" stroke="white" stroke-width="1.5" stroke-linecap="round" stroke-linejoin="round"/>
<path d="M32.0228 5.02275L30.432 3.432" stroke="white" stroke-width="1.5" stroke-linecap="round" stroke-linejoin="round"/>
<path d="M13.75 1H1.25C0.918479 1 0.600537 1.1317 0.366117 1.36612C0.131696 1.60054 0 1.91848 0 2.25L0 14.75C0 15.0815 0.131696 15.3995 0.366117 15.6339C0.600537 15.8683 0.918479 16 1.25 16H13.75C14.0815 16 14.3995 15.8683 14.6339 15.6339C14.8683 15.3995 15 15.0815 15 14.75V2.25C15 1.91848 14.8683 1.60054 14.6339 1.36612C14.3995 1.1317 14.0815 1 13.75 1V1ZM13.4375 7.875H5.3125C5.22962 7.875 5.15013 7.84208 5.09153 7.78347C5.03292 7.72487 5 7.64538 5 7.5625V2.5625C5 2.47962 5.03292 2.40013 5.09153 2.34153C5.15013 2.28292 5.22962 2.25 5.3125 2.25H13.4375C13.5204 2.25 13.5999 2.28292 13.6585 2.34153C13.7171 2.40013 13.75 2.47962 13.75 2.5625V7.5625C13.75 7.64538 13.7171 7.72487 13.6585 7.78347C13.5999 7.84208 13.5204 7.875 13.4375 7.875ZM1.5625 2.25H3.4375C3.52038 2.25 3.59987 2.28292 3.65847 2.34153C3.71708 2.40013 3.75 2.47962 3.75 2.5625V14.4375C3.75 14.5204 3.71708 14.5999 3.65847 14.6585C3.59987 14.7171 3.52038 14.75 3.4375 14.75H1.5625C1.47962 14.75 1.40013 14.7171 1.34153 14.6585C1.28292 14.5999 1.25 14.5204 1.25 14.4375V2.5625C1.25 2.47962 1.28292 2.40013 1.34153 2.34153C1.40013 2.28292 1.47962 2.25 1.5625 2.25ZM5 14.4375V9.4375C5 9.35462 5.03292 9.27513 5.09153 9.21653C5.15013 9.15792 5.22962 9.125 5.3125 9.125H13.4375C13.5204 9.125 13.5999 9.15792 13.6585 9.21653C13.7171 9.27513 13.75 9.35462 13.75 9.4375V14.4375C13.75 14.5204 13.7171 14.5999 13.6585 14.6585C13.5999 14.7171 13.5204 14.75 13.4375 14.75H5.3125C5.22962 14.75 5.15013 14.7171 5.09153 14.6585C5.03292 14.5999 5 14.5204 5 14.4375Z" fill="white"/>
</svg>
