<svg width="15" height="15" viewBox="0 0 15 15" fill="none" xmlns="http://www.w3.org/2000/svg">
<path d="M13.75 0H1.25C0.918479 0 0.600537 0.131696 0.366117 0.366117C0.131696 0.600537 0 0.918479 0 1.25L0 13.75C0 14.0815 0.131696 14.3995 0.366117 14.6339C0.600537 14.8683 0.918479 15 1.25 15H13.75C14.0815 15 14.3995 14.8683 14.6339 14.6339C14.8683 14.3995 15 14.0815 15 13.75V1.25C15 0.918479 14.8683 0.600537 14.6339 0.366117C14.3995 0.131696 14.0815 0 13.75 0V0ZM13.4375 6.875H5.3125C5.22962 6.875 5.15013 6.84208 5.09153 6.78347C5.03292 6.72487 5 6.64538 5 6.5625V1.5625C5 1.47962 5.03292 1.40013 5.09153 1.34153C5.15013 1.28292 5.22962 1.25 5.3125 1.25H13.4375C13.5204 1.25 13.5999 1.28292 13.6585 1.34153C13.7171 1.40013 13.75 1.47962 13.75 1.5625V6.5625C13.75 6.64538 13.7171 6.72487 13.6585 6.78347C13.5999 6.84208 13.5204 6.875 13.4375 6.875ZM1.5625 1.25H3.4375C3.52038 1.25 3.59987 1.28292 3.65847 1.34153C3.71708 1.40013 3.75 1.47962 3.75 1.5625V13.4375C3.75 13.5204 3.71708 13.5999 3.65847 13.6585C3.59987 13.7171 3.52038 13.75 3.4375 13.75H1.5625C1.47962 13.75 1.40013 13.7171 1.34153 13.6585C1.28292 13.5999 1.25 13.5204 1.25 13.4375V1.5625C1.25 1.47962 1.28292 1.40013 1.34153 1.34153C1.40013 1.28292 1.47962 1.25 1.5625 1.25ZM5 13.4375V8.4375C5 8.35462 5.03292 8.27513 5.09153 8.21653C5.15013 8.15792 5.22962 8.125 5.3125 8.125H13.4375C13.5204 8.125 13.5999 8.15792 13.6585 8.21653C13.7171 8.27513 13.75 8.35462 13.75 8.4375V13.4375C13.75 13.5204 13.7171 13.5999 13.6585 13.6585C13.5999 13.7171 13.5204 13.75 13.4375 13.75H5.3125C5.22962 13.75 5.15013 13.7171 5.09153 13.6585C5.03292 13.5999 5 13.5204 5 13.4375Z" fill="white"/>
</svg>
