<svg width="15" height="16" viewBox="0 0 15 16" fill="none" xmlns="http://www.w3.org/2000/svg">
<path d="M13.75 0.300018H1.25C0.918479 0.300018 0.600537 0.431714 0.366117 0.666135C0.131696 0.900555 0 1.2185 0 1.55002L0 14.05C0 14.3815 0.131696 14.6995 0.366117 14.9339C0.600537 15.1683 0.918479 15.3 1.25 15.3H13.75C14.0815 15.3 14.3995 15.1683 14.6339 14.9339C14.8683 14.6995 15 14.3815 15 14.05V1.55002C15 1.2185 14.8683 0.900555 14.6339 0.666135C14.3995 0.431714 14.0815 0.300018 13.75 0.300018V0.300018ZM13.4375 7.17502H5.3125C5.22962 7.17502 5.15013 7.14209 5.09153 7.08349C5.03292 7.02488 5 6.9454 5 6.86252V1.86252C5 1.77964 5.03292 1.70015 5.09153 1.64155C5.15013 1.58294 5.22962 1.55002 5.3125 1.55002H13.4375C13.5204 1.55002 13.5999 1.58294 13.6585 1.64155C13.7171 1.70015 13.75 1.77964 13.75 1.86252V6.86252C13.75 6.9454 13.7171 7.02488 13.6585 7.08349C13.5999 7.14209 13.5204 7.17502 13.4375 7.17502ZM1.5625 1.55002H3.4375C3.52038 1.55002 3.59987 1.58294 3.65847 1.64155C3.71708 1.70015 3.75 1.77964 3.75 1.86252V13.7375C3.75 13.8204 3.71708 13.8999 3.65847 13.9585C3.59987 14.0171 3.52038 14.05 3.4375 14.05H1.5625C1.47962 14.05 1.40013 14.0171 1.34153 13.9585C1.28292 13.8999 1.25 13.8204 1.25 13.7375V1.86252C1.25 1.77964 1.28292 1.70015 1.34153 1.64155C1.40013 1.58294 1.47962 1.55002 1.5625 1.55002ZM5 13.7375V8.73752C5 8.65464 5.03292 8.57515 5.09153 8.51655C5.15013 8.45794 5.22962 8.42502 5.3125 8.42502H13.4375C13.5204 8.42502 13.5999 8.45794 13.6585 8.51655C13.7171 8.57515 13.75 8.65464 13.75 8.73752V13.7375C13.75 13.8204 13.7171 13.8999 13.6585 13.9585C13.5999 14.0171 13.5204 14.05 13.4375 14.05H5.3125C5.22962 14.05 5.15013 14.0171 5.09153 13.9585C5.03292 13.8999 5 13.8204 5 13.7375Z" fill="#666666"/>
</svg>
