<svg width="15" height="15" viewBox="0 0 15 15" fill="none" xmlns="http://www.w3.org/2000/svg">
<path d="M11.9262 10.1125C10.7832 10.1123 9.65616 9.84412 8.63549 9.32959C7.61482 8.81506 6.72896 8.06848 6.04895 7.14973C5.36895 6.23098 4.91375 5.16564 4.71986 4.03918C4.52597 2.91272 4.59879 1.7565 4.93249 0.663269C3.82486 1.17381 2.86258 1.95339 2.13333 2.93099C1.40408 3.90859 0.931042 5.05312 0.75731 6.26032C0.583578 7.46751 0.714676 8.69899 1.13866 9.84256C1.56264 10.9861 2.26604 12.0054 3.18475 12.8076C4.10347 13.6097 5.2083 14.1693 6.39859 14.4352C7.58888 14.7011 8.82679 14.6649 9.99953 14.33C11.1723 13.9951 12.2426 13.3721 13.1129 12.5176C13.9833 11.6632 14.626 10.6046 14.9825 9.43827C14.0248 9.88234 12.9819 10.1124 11.9262 10.1125Z" fill="#666666"/>
</svg>
